<svg id="圖層_1_影像" data-name="圖層 1 影像" xmlns="http://www.w3.org/2000/svg" viewBox="0 0 160 67"><defs><style>.cls-1{fill:#a6c803;}.cls-2{fill:#073190;}</style></defs><title>logo-chenta工作區域 1</title><path class="cls-1" d="M52.56,17.54c1,8.33-1.87,21.18-16.75,25.22a21.42,21.42,0,0,1-4.69.44V34.54a14,14,0,0,0,5.52-1.24c1.77-.78,13.78-9.7,3-21.28a11.08,11.08,0,0,0-7.8-3.12,13.29,13.29,0,0,0-8.12,2.5C25.57,4.18,25,2.21,25,1.07,43.12-3.59,51.38,11.28,52.56,17.54Z"/><path class="cls-1" d="M2.4,25a32.9,32.9,0,0,0,10.37-2.05c-1.45,2.73-5.92,9.82-3.63,20.29h-9C-.65,31.85,1.86,25.8,2.4,25Z"/><path class="cls-2" d="M35.47,13.11c1.77,3.25,4.33,5.78,7.08,8.37-.95,0-5.28-.15-8.77,1-10.07,3.31-11.2,15-11.17,16a23.37,23.37,0,0,0,1.17,6A17,17,0,0,0,26.37,49a18.93,18.93,0,0,0,1.81,2,14.09,14.09,0,0,0,3,2.23,14.06,14.06,0,0,0,3.24,1.42C35.63,55,47.66,54,48.69,53c.34.16.43-.51.85-.16a21.15,21.15,0,0,0-5.07,11l-.26.26a47,47,0,0,1-5.47.3,5.73,5.73,0,0,1-1.88-.24c-.52-.22-1.21.18-1.73-.29A15.29,15.29,0,0,1,30,62.46a23.23,23.23,0,0,1-4.34-2.29,26.19,26.19,0,0,1-5.52-4.81,29.61,29.61,0,0,1-6.22-17.63c0-9.4,7.12-17.2,9.13-19C27.22,14.85,34.21,13,35.47,13.11Z"/><path class="cls-2" d="M122.22,48.56a138.2,138.2,0,0,1,14.06.15,5.65,5.65,0,0,0-3.34,1.17,9.57,9.57,0,0,0-2.32,2.63h-3.84V66.07l-.37.37h-4.07a6.27,6.27,0,0,1-1.09-1.73c-.7-1.16-1.44-2.3-2.16-3.46-1.13-1.82-2.21-3.68-3.39-5.47a5.09,5.09,0,0,0-1.8-1.7,1.54,1.54,0,0,0-.08,1c.18,1.83-.33,3.62-.29,5.44s0,3.7,0,5.67c-.72,0-1.46,0-2.19,0h-2.26V48.54c1.11.06,2.25-.27,3.38.22.34.15.78-.14,1.11.18s.73-.09.91.36a4,4,0,0,1,2.35,1.33c1.82,1.47,2.89,3.5,4.1,5.43a16.32,16.32,0,0,0,1.28,2.08Z"/><path class="cls-2" d="M106.1,62.52v3.62c-.28.2-.64.07-1,.08-2.38,0-4.75,0-7.13,0-.71,0-1.47-.23-2.14.25-1-.28-2.15-.28-3-1a6.08,6.08,0,0,1-2.18-3.19,3.22,3.22,0,0,1-.12-.74c0-4.31,0-8.62,0-13h15.57v3.54l-.33.33H95.37v2.92h10.19v3.71H95.36v3.09a2.11,2.11,0,0,0,1.61.37Z"/><path class="cls-2" d="M70.2,48.54h5.51v6.78h6.35V48.57h5.58c0,2.28,0,4.56,0,6.83A3.9,3.9,0,0,1,85,58.53a11.53,11.53,0,0,1-3.08.55c-2,0-4,0-6.16,0v7l-.4.4H70.57c-.18-.2-.42-.33-.38-.66a7.14,7.14,0,0,0,0-.92Z"/><path class="cls-2" d="M159.75,66.19H155V53a6.22,6.22,0,0,0-4.13.73,7.11,7.11,0,0,0-2.2,2.13c-1.26,2.07-2.57,4.11-3.78,6.21a37.55,37.55,0,0,1-2.58,4.09,1,1,0,0,0-.1.25h-4.84a.75.75,0,0,1,.09-.84,17.67,17.67,0,0,0,1.31-2.1c.83-1.61,1.86-3.1,2.81-4.64s2.11-3.35,3.09-5.06A9.72,9.72,0,0,1,150,49.14c.42-.17.93,0,1.3-.37,1.2.06,2.36-.51,3.62-.2l.33.33v3.81c.72,0,1.45,0,2.18,0h2.27Z"/><path class="cls-2" d="M64.61,45.52c-.82.09-1.61.36-2.48.38a9.12,9.12,0,0,0-2.41.54,25.79,25.79,0,0,0-4.71,2,23,23,0,0,0-2.17,1.34.32.32,0,0,1,0-.47,14.22,14.22,0,0,0,3.31-5.89,8.34,8.34,0,0,0,.54-3.08c0-.52.33-.92.29-1.48a18.75,18.75,0,0,0-1.57-7.15A15.92,15.92,0,0,0,53,27.64a13.36,13.36,0,0,1,2.68.66c.93.15,1.83.57,2.76.62s1.83.5,2.79.3,1.84.36,2.79.27C66.34,34.61,66.08,42.06,64.61,45.52Z"/><path class="cls-2" d="M67.51,52.21c-.88,0-1.71-.05-2.54,0a7.82,7.82,0,0,0-5.39,2.28,3.2,3.2,0,0,0-1,2.49c0,.57,0,1.14,0,1.54a5.58,5.58,0,0,0,1.6,2.29,8.35,8.35,0,0,0,3,1.46,10.42,10.42,0,0,0,2.93.24c.48,0,1,0,1.41,0a1.62,1.62,0,0,1,.08.31c0,1.27,0,2.55,0,3.92a24,24,0,0,1-4.07,0,12.58,12.58,0,0,1-6.6-2.85c-1.6-1.47-2.06-1.72-2.89-3.66a4,4,0,0,1-.46-1.79c0-.66,0-1.32,0-2A5.67,5.67,0,0,1,54.81,53a10.44,10.44,0,0,1,3.11-2.9,17.18,17.18,0,0,1,3.7-1.6A19.6,19.6,0,0,1,67.51,48Z"/><path class="cls-2" d="M143.14,48.51v4.18c-.48,0-1,.24-1.42-.17a.34.34,0,0,0-.25,0,15.29,15.29,0,0,0-4,.76,3.72,3.72,0,0,0-2,1.84V66.44h-4.66l-.36-.36c0-3.51,0-7,0-10.55a5.79,5.79,0,0,1,.87-2.95,7.63,7.63,0,0,1,4.41-3.3,12.09,12.09,0,0,1,4.57-.78C141.2,48.54,142.12,48.51,143.14,48.51Z"/><path class="cls-2" d="M127.82,35.06H137v2.32h-6.27V39h6V41.1h-6v1.75l.34.34H137v2.07l-.31.31h-6.27a6.46,6.46,0,0,1-1.21-.59,3.47,3.47,0,0,1-1.39-2.85C127.81,39.82,127.82,37.49,127.82,35.06Z"/><path class="cls-2" d="M137.37,45.56a1.27,1.27,0,0,1,.09-.77c1.19-2.32,2.05-4.8,3.55-7a5.38,5.38,0,0,1,3.41-2.57A24.45,24.45,0,0,1,147,35c.18.77,0,1.56.12,2.36h2.33v8.19H147.2l-.37-.37V37.71H145.2a4.26,4.26,0,0,0-2.48,2.39c-.67,1.71-1.51,3.33-2.23,5a2.92,2.92,0,0,1-.3.45Z"/><path class="cls-2" d="M123.82,42.66v3.12c-1.07.35-2-.26-3-.21-.32-.33-.76-.37-1.11-.58a4.31,4.31,0,0,1-2.43-4,7.32,7.32,0,0,1,.18-2.16A6.46,6.46,0,0,1,119,36.33,7,7,0,0,1,121.35,35a4.69,4.69,0,0,1,2.27-.24c.76,0,1.55-.23,2.28.23.19.12.51,0,.81,0v2.86a8.34,8.34,0,0,0-3.64-.48,3.23,3.23,0,0,0-2.88,2.06c-.09.36-.41.66-.31,1.07s.42.56.28.9C121,42.87,122.37,42.77,123.82,42.66Z"/><path class="cls-2" d="M153.83,39.53H157l.36-.36V38l-.36-.36H153.8a3.65,3.65,0,0,1-.07-1.26c0-.43,0-.87,0-1.34h4.05a5,5,0,0,1,1.71,1.35,18.14,18.14,0,0,1,.34,1.85c.08,2.12-.88,3.22-2.95,3.74a11.52,11.52,0,0,1,1.64,1.69c.39.6,1,1.06,1.48,1.81-1.21.15-2.24,0-3.18.08a25.07,25.07,0,0,1-2.86-3.1,1.26,1.26,0,0,1-.34-1.69C153.89,40.43,153.55,40,153.83,39.53Z"/><path class="cls-2" d="M82.11,66.05V59.72a9.1,9.1,0,0,1,2.36-.41,4.57,4.57,0,0,0,2.41-1.16c.17-.18.31-.44.63-.38,0,0,.09.06.09.09,0,2.75,0,5.51,0,8.28l-.35.35H82.47Z"/><path class="cls-2" d="M150.32,35.06h2.86v3.52c0,1.19,0,2.37,0,3.56s.25,2.32-.22,3.44h-2.31l-.33-.33Z"/><path class="cls-1" d="M151.72,62.78c-1.94.27-3.57-1-3.29-3.44l.72-1.39a3.41,3.41,0,0,1,2.54-.66,2.78,2.78,0,0,1,1.79,1.26,3.1,3.1,0,0,1,.33,1.59,2.68,2.68,0,0,1-.59,1.72C152.8,62.32,152.17,62.37,151.72,62.78Z"/><path class="cls-2" d="M124.43,41.64H122V39a10.63,10.63,0,0,1,4.15.33l.79.87v5.6h-2.24l-.32-.32Z"/><path class="cls-2" d="M146,41a2.71,2.71,0,0,1-.44,2,2.83,2.83,0,0,1-1.77.26,2.46,2.46,0,0,1-1-1.47A2.35,2.35,0,0,1,144.54,40,2.61,2.61,0,0,1,146,41Z"/></svg>