<svg xmlns:xlink="http://www.w3.org/1999/xlink" xmlns="http://www.w3.org/2000/svg" version="1.1" id="圖層_1" x="0px" y="0px" viewBox="0 0 300 60" xmlSpace="preserve" width="300"  height="60" ><g><rect x="3.7" y="3.5" width="292.5" height="52.9" style="fill-rule: evenodd; clip-rule: evenodd;" stroke="#FFFFFF" fill="#CC0000" stroke-width="2px"></rect><g><path d="M27.9,11.4c-1.3,0.2-3.5,0.8-4.8,1.4
			c-2.4,1.1-6.3,3.9-6.3,4.5c0,0.2,6.5,0.3,14.4,0.3s14.4-0.2,14.4-0.3c0-0.5-3.6-3.2-5.6-4.2C36.6,11.4,32,10.7,27.9,11.4z" style="fill-rule: evenodd; clip-rule: evenodd;" fill="#FFFFFF"></path><path d="M172.5,18c-3,0.6-5.3,2.5-6.2,4.8c-0.8,2-0.5,5,0.5,6.6
			c1.3,1.9,2.8,2.8,6.9,3.8c1.9,0.5,3.9,1.2,4.4,1.5c2,1.3,1.6,4.2-0.7,5.6c-1.7,1-6.7,1.1-9.8,0.2c-1.1-0.3-2.1-0.6-2.1-0.6
			c-0.1,0-0.1,0.8-0.1,1.9v1.8l2.3,0.7c3.3,1,9.7,0.7,12.1-0.5c3.3-1.7,4.8-4.6,4.2-8.2c-0.5-3.5-2.4-4.7-9.7-6.5
			c-2.5-0.6-3.9-1.9-3.9-3.5c0-3.7,4.3-4.9,10.8-3l1.8,0.5l-0.1-1.9c-0.1-1.9-0.2-2-1.9-2.4C178.6,17.9,174.2,17.6,172.5,18z" style="fill-rule: evenodd; clip-rule: evenodd;" fill="#FFFFFF"></path><path d="M199.2,18c-4.5,1-8,3.9-9.6,8.1c-1.2,3.2-1.2,8.1,0,11.3
			c1.1,3,4.1,5.8,7.2,6.7c2.2,0.6,7.2,0.8,10,0.4c1.5-0.3,1.5-0.3,1.5-2v-1.8l-4.1,0.2c-5,0.3-6.6-0.2-8.6-2.4
			c-1.6-1.8-2.3-3.8-2.3-6.9c0-6.1,3.4-9.9,8.9-10c1.4,0,3.3,0.1,4.1,0.3l1.5,0.3v-1.8c0-1.6-0.1-1.9-0.9-2.1
			C205,17.8,201,17.7,199.2,18z" style="fill-rule: evenodd; clip-rule: evenodd;" fill="#FFFFFF"></path><path d="M273.6,18c-3.9,0.8-6.9,3.2-8.6,6.9c-0.8,1.8-1,2.8-1,6.5
			c0,4,0.1,4.6,1.2,6.8c2.2,4.5,5.9,6.6,11.4,6.6s9.2-2.1,11.4-6.6c1-2.1,1.2-2.8,1.2-6.8c0-5.1-0.8-7.6-3.5-10.1
			C282.8,18.5,277.8,17.1,273.6,18z M278.8,21.8c2.5,0.7,4.5,2.7,5.3,5.5c1.6,5.6-0.1,11.1-4.3,13.2c-1.2,0.6-5.3,0.6-6.5,0
			c-1.9-1-3.7-3.1-4.3-5.1c-1.8-6,0.6-12.3,5.1-13.5C276.3,21.3,276.6,21.3,278.8,21.8z" style="fill-rule: evenodd; clip-rule: evenodd;" fill="#FFFFFF"></path><polygon points="59,20.3 59,22.2 63.1,22.2 67.3,22.2 67.3,33.2 
			67.3,44.3 69.6,44.3 71.9,44.3 71.9,33.2 71.9,22.2 76.3,22.2 80.7,22.2 80.7,20.3 80.7,18.4 69.8,18.4 59,18.4 		" style="fill-rule: evenodd; clip-rule: evenodd;" fill="#FFFFFF"></polygon><path d="M84.4,31.3v13h2.3H89v-5v-5l2,0h2l3.5,5l3.5,5h2.7h2.8
			l-1.6-2.2c-0.9-1.2-2.6-3.5-3.8-5.2c-1.2-1.7-2.2-3.1-2.2-3.3c0-0.1,0.7-0.5,1.5-0.8c2.1-0.9,3-1.8,3.9-3.8
			c1.6-3.5,0.5-7.3-2.8-9.3c-2-1.1-2.2-1.2-9-1.3l-7-0.1V31.3z M98.3,23.3c1.3,1.3,1.3,3.9-0.1,5.3c-1.2,1.1-4.8,2-7.4,1.8l-1.5-0.1
			l-0.1-4.1L89,22.1l4.2,0.2C96.8,22.4,97.4,22.5,98.3,23.3z" style="fill-rule: evenodd; clip-rule: evenodd;" fill="#FFFFFF"></path><path d="M113,31c-2.8,6.9-5.1,12.8-5.2,13c0,0.2,1,0.3,2.3,0.3
			l2.4-0.1l1.3-3.3l1.2-3.3l5.2,0.1l5.2,0.1l1.3,3.2l1.3,3.3h2.3c1.2,0,2.2-0.1,2.2-0.3c0-0.2-2.3-5.9-5-12.8l-5-12.5l-2.2-0.1
			l-2.3-0.1L113,31z M121.9,28.6c0.8,2.1,1.5,4.2,1.6,4.5c0.2,0.7-0.1,0.8-3.4,0.8s-3.6-0.1-3.3-0.8c0.2-0.4,1-2.5,1.8-4.8
			c0.8-2.2,1.6-4,1.7-3.8C120.4,24.6,121.1,26.4,121.9,28.6z" style="fill-rule: evenodd; clip-rule: evenodd;" fill="#FFFFFF"></path><path d="M136.6,31.4v12.9h2.3h2.3l0.1-9.7l0.1-9.6l2,3.1
			c1.1,1.7,4.1,6.1,6.7,9.6l4.6,6.6h2.4h2.4V31.4V18.4h-2.3h-2.4L155,28c0.1,5.3,0.2,9.6,0.1,9.6s-0.8-1.1-1.7-2.4
			c-0.8-1.3-3.8-5.6-6.6-9.6l-5-7.2l-2.6,0h-2.6V31.4z" style="fill-rule: evenodd; clip-rule: evenodd;" fill="#FFFFFF"></path><path d="M211.3,18.6c0,0.1,2.2,3.6,4.8,7.7l4.8,7.6v5.2v5.2h2.3h2.3
			V39v-5.3l4.5-7.1c2.5-3.9,4.6-7.4,4.8-7.7c0.2-0.4-0.3-0.5-2.2-0.5h-2.5l-3.5,5.6c-1.9,3.1-3.5,5.6-3.6,5.6c0,0-1.7-2.5-3.6-5.6
			l-3.5-5.6h-2.4C212.4,18.4,211.3,18.5,211.3,18.6z" style="fill-rule: evenodd; clip-rule: evenodd;" fill="#FFFFFF"></path><path d="M239.2,31.4v12.9h2.3h2.3v-5.9c0-3.2,0.2-5.8,0.3-5.7
			c0.2,0,2.7,2.7,5.5,5.8l5.2,5.8h2.9h2.9l-2.5-2.8c-1.4-1.5-4-4.5-5.8-6.6l-3.3-3.8l1.9-2.3c1.1-1.3,3.5-4.1,5.4-6.4l3.5-4h-2.8
			H254l-4.8,5.8c-2.6,3.2-4.9,5.8-5.1,5.8c-0.2,0-0.3-2.6-0.3-5.8v-5.8h-2.3h-2.3V31.4z" style="fill-rule: evenodd; clip-rule: evenodd;" fill="#FFFFFF"></path><path d="M12.6,23.5c-3.1,7-1.3,16,4.5,21.7c11.7,11.7,31.6,5,34-11.5
			c0.3-1.8,0.4-3.5,0.2-3.9c-0.2-0.5-1.3-0.6-8.3-0.5L35,29.5l-0.3,1.8L34.5,33h6.2c3.4,0,6.2,0.1,6.2,0.3c0,0.2-0.4,2.8-0.9,5.8
			l-1,5.6h-9.1c-10.1,0-9.5,0.2-8.8-2.9l0.3-1.3l6.6-0.1l6.5-0.1l0.3-1.6l0.3-1.5h-6.2h-6.3l0.3-1.2c0.1-0.6,0.5-2.9,0.9-5.1
			c0.3-2.2,0.8-4.4,0.8-4.9l0.2-0.9h9.8c6.6,0,9.8-0.1,9.8-0.4c0-0.3-0.3-1-0.6-1.7l-0.7-1.3H38.4H27.8l-2,10.9
			c-1.1,6.1-2.1,11.2-2.2,11.5c-0.3,0.8-5.1,0.8-5.1,0c0-0.5,3.5-19.7,4-21.5c0.2-0.9,0.2-0.9-4.4-0.9h-4.6L12.6,23.5z" style="fill-rule: evenodd; clip-rule: evenodd;" fill="#FFFFFF"></path></g></g></svg>